<svg width="141" height="108" viewBox="0 0 141 108" fill="none" xmlns="http://www.w3.org/2000/svg">
<g clip-path="url(#clip0_106_1051)">
<path d="M110.668 66.0525H115.69V82.6438C115.63 82.9027 115.637 83.1726 115.71 83.428C115.783 83.6835 115.921 83.9161 116.109 84.104C116.298 84.292 116.531 84.4289 116.787 84.5021C117.043 84.5752 117.314 84.5821 117.573 84.5221C117.85 84.5259 118.123 84.4692 118.375 84.3559C118.626 84.2425 118.85 84.0754 119.03 83.8663C119.209 83.6572 119.341 83.4113 119.415 83.1459C119.488 82.8806 119.503 82.6023 119.457 82.3307V66.0525H124.479V82.0177C124.589 82.9351 124.484 83.8655 124.171 84.7352C123.858 85.6048 123.346 86.3897 122.676 87.0277C122.005 87.6657 121.195 88.1392 120.31 88.4107C119.424 88.6821 118.487 88.7441 117.573 88.5916C116.66 88.7441 115.723 88.6821 114.837 88.4107C113.952 88.1392 113.141 87.6657 112.471 87.0277C111.801 86.3897 111.289 85.6048 110.976 84.7352C110.663 83.8655 110.557 82.9351 110.668 82.0177V66.0525Z" fill="white"/>
<path d="M131.699 80.765V82.3303C131.575 82.6499 131.541 82.9974 131.6 83.335C131.66 83.6726 131.811 83.9874 132.038 84.2454C132.264 84.5034 132.557 84.6947 132.885 84.7985C133.212 84.9024 133.562 84.9149 133.896 84.8346C134.172 84.8385 134.446 84.7817 134.698 84.6684C134.949 84.5551 135.173 84.388 135.353 84.1789C135.532 83.9698 135.664 83.7239 135.738 83.4585C135.811 83.1931 135.826 82.9148 135.78 82.6433C135.695 81.8578 135.382 81.1139 134.881 80.5025C134.379 79.891 133.71 79.4384 132.955 79.1998C131.445 78.4972 130.065 77.5446 128.874 76.3824C127.805 75.1769 127.243 73.6075 127.304 71.9998C127.254 71.1373 127.392 70.2741 127.71 69.4703C128.028 68.6665 128.518 67.9415 129.145 67.3456C129.772 66.7497 130.523 66.2973 131.343 66.0199C132.164 65.7424 133.035 65.6465 133.896 65.739C134.832 65.6814 135.769 65.8336 136.638 66.1844C137.508 66.5353 138.287 67.0758 138.919 67.7664C139.551 68.457 140.021 69.2801 140.292 70.1752C140.564 71.0703 140.631 72.0147 140.488 72.939H135.466C135.466 71.6868 135.466 69.8085 133.896 69.8085C133.666 69.7615 133.427 69.7669 133.199 69.8242C132.971 69.8815 132.758 69.9893 132.577 70.1396C132.396 70.2899 132.252 70.4789 132.154 70.6925C132.056 70.9062 132.008 71.139 132.013 71.3737C131.954 71.9471 132.073 72.5246 132.354 73.0284C132.634 73.5321 133.063 73.938 133.582 74.1911C135.231 75.1112 136.805 76.1579 138.291 77.3216C138.981 78.0135 139.509 78.8501 139.834 79.7706C140.16 80.6911 140.276 81.6725 140.174 82.6433C140.274 83.5308 140.172 84.4293 139.876 85.2722C139.58 86.1151 139.098 86.8807 138.465 87.5122C137.831 88.1437 137.064 88.6249 136.218 88.9201C135.373 89.2152 134.472 89.3168 133.582 89.2172C128.874 89.2172 126.677 86.7129 126.677 83.5824V80.765H131.385" fill="white"/>
<path fill-rule="evenodd" clip-rule="evenodd" d="M86.3582 100.825C79.3378 105.503 71.084 108 62.6406 108C51.3183 108 40.4598 103.515 32.4538 95.5305C24.4478 87.5463 19.95 76.7175 19.95 65.4262C19.95 57.0059 22.4538 48.7747 27.1447 41.7734C31.8356 34.7722 38.5029 29.3154 46.3036 26.0931C54.1043 22.8707 62.688 22.0276 70.9691 23.6704C79.2503 25.3131 86.857 29.3679 92.8274 35.3219C98.7978 41.276 102.864 48.8619 104.511 57.1205C106.158 65.379 105.313 73.9392 102.082 81.7185C98.8504 89.4979 93.3786 96.147 86.3582 100.825ZM82.0306 93.9822C76.2941 97.8144 69.5452 99.8605 62.6406 99.8607C53.4538 99.8611 44.6386 96.2432 38.1132 89.7943C31.5878 83.3453 27.8803 74.5873 27.7976 65.426C27.7354 58.5405 29.7259 51.7918 33.5165 46.0365C37.3071 40.2813 42.7268 35.7789 49.0878 33.1008C55.4488 30.4228 62.4643 29.6898 69.2437 30.995C76.0231 32.3002 82.2609 35.5847 87.1652 40.4316C92.0696 45.2784 95.4193 51.4692 96.7894 58.218C98.1595 64.9668 97.488 71.9694 94.8603 78.337C92.2326 84.7046 87.7671 90.1501 82.0306 93.9822Z" fill="white"/>
<path d="M41.6093 42.5742H49.4568V67.9307C49.3464 68.3351 49.3394 68.7606 49.4366 69.1684C49.5338 69.5761 49.732 69.953 50.0131 70.2645C50.2943 70.576 50.6493 70.8122 51.0457 70.9514C51.4421 71.0906 51.8671 71.1283 52.282 71.0612C52.6809 71.0637 53.0759 70.9818 53.4408 70.8211C53.8058 70.6603 54.1325 70.4243 54.3993 70.1286C54.6662 69.8328 54.8673 69.4841 54.9893 69.1053C55.1113 68.7264 55.1514 68.3262 55.1071 67.9307V42.8873H62.9546V66.9916C62.9546 72.6264 60.4434 77.009 52.282 77.009C44.1205 77.009 41.6093 73.8786 41.6093 66.9916V42.5742Z" fill="white"/>
<path d="M66.0936 88.2784V54.7827H73.9412V81.3914H83.3582V88.2784H66.0936Z" fill="white"/>
<path d="M51.3402 81.3915H52.2819C52.4283 81.3396 52.5854 81.3246 52.739 81.3479C52.8926 81.3712 53.0381 81.432 53.1624 81.525C53.2867 81.618 53.386 81.7402 53.4515 81.8808C53.5169 82.0214 53.5465 82.1759 53.5375 82.3306C53.5375 82.4539 53.5132 82.576 53.4658 82.69C53.4185 82.8039 53.3491 82.9075 53.2617 82.9947C53.1743 83.0819 53.0704 83.151 52.9562 83.1982C52.8419 83.2454 52.7195 83.2697 52.5958 83.2697H51.3402V81.3915ZM51.3402 83.8958H52.2819C52.5317 83.8958 52.7712 83.9948 52.9478 84.1709C53.1244 84.347 53.2236 84.5859 53.2236 84.8349C53.2699 85.2648 53.3756 85.6861 53.5375 86.0871H54.1653V84.5219C54.1653 84.2728 54.0661 84.034 53.8895 83.8578C53.7129 83.6817 53.4734 83.5828 53.2236 83.5828C53.4999 83.5118 53.7437 83.3491 53.9148 83.1215C54.086 82.8939 54.1743 82.615 54.1653 82.3306C54.1653 81.0784 53.5375 80.7654 52.2819 80.7654H50.7124V86.0871H51.3402V83.8958Z" fill="white"/>
<path d="M47.5733 83.5826C47.5733 84.5113 47.8495 85.4192 48.3668 86.1914C48.8842 86.9636 49.6196 87.5654 50.48 87.9208C51.3403 88.2762 52.2871 88.3692 53.2004 88.188C54.1138 88.0068 54.9528 87.5596 55.6113 86.9029C56.2698 86.2462 56.7182 85.4095 56.8999 84.4987C57.0816 83.5878 56.9883 82.6437 56.6319 81.7857C56.2756 80.9276 55.6721 80.1943 54.8977 79.6783C54.1234 79.1624 53.2131 78.887 52.2818 78.887C51.0331 78.887 49.8354 79.3817 48.9524 80.2623C48.0694 81.1429 47.5733 82.3372 47.5733 83.5826ZM48.2011 83.5826C48.1393 82.6921 48.3516 81.8041 48.8097 81.0372C49.2677 80.2703 49.9497 79.6612 50.7643 79.2914C51.5788 78.9215 52.4873 78.8085 53.368 78.9675C54.2487 79.1265 55.0598 79.5499 55.6927 80.1811C56.3256 80.8122 56.7502 81.6211 56.9096 82.4994C57.069 83.3777 56.9557 84.2837 56.5848 85.096C56.2139 85.9084 55.6032 86.5885 54.8342 87.0453C54.0652 87.502 53.1747 87.7138 52.2818 87.6522C51.1687 87.655 50.096 87.2365 49.2803 86.4811C48.4646 85.7258 47.9667 84.6899 47.8872 83.5826H48.2011Z" fill="white"/>
<path d="M8.9636 73.8784V72.3132C8.9636 70.435 8.3358 69.4958 7.3941 69.4958C6.45239 69.4958 5.51069 70.435 5.51069 71.6871V82.6437C5.45051 82.9025 5.45742 83.1724 5.53075 83.4279C5.60408 83.6834 5.74142 83.916 5.92984 84.1039C6.11826 84.2918 6.35155 84.4288 6.60772 84.5019C6.86389 84.575 7.13452 84.5819 7.3941 84.5219C9.27751 84.5219 9.27751 82.6437 9.27751 81.3915V79.5132H14.2999V82.3306C14.2999 86.0871 12.1026 88.9045 6.7663 88.9045C1.42997 88.9045 0.174367 86.0871 0.174367 81.7045V72.6263C0.00864708 71.6852 0.0727094 70.7181 0.361132 69.807C0.649554 68.8958 1.15385 68.0674 1.83133 67.3917C2.5088 66.7161 3.33953 66.2132 4.25319 65.9256C5.16684 65.6379 6.13654 65.574 7.0802 65.7393C11.4748 65.7393 13.986 67.6176 13.986 72.0002V73.8784H8.9636Z" fill="white"/>
<path d="M14.6138 29.4261L13.6721 28.8001C12.7304 28.174 11.7887 28.174 11.4748 28.487C11.1609 28.8001 11.1609 30.0522 11.7887 30.6783L18.0667 35.374C18.2057 35.4904 18.3683 35.5754 18.5434 35.6231C18.7184 35.6708 18.9018 35.6801 19.0808 35.6503C19.2598 35.6206 19.4302 35.5525 19.5803 35.4507C19.7304 35.349 19.8566 35.216 19.9502 35.0609C20.578 34.1218 19.6363 33.1827 19.0085 32.5566L17.7528 31.6174L19.9502 28.487L21.8336 30.0522C22.4023 30.4452 22.8772 30.9583 23.2245 31.5552C23.5718 32.152 23.7829 32.8178 23.8428 33.5052C23.9028 34.1926 23.8101 34.8848 23.5713 35.5324C23.3325 36.1801 22.9536 36.7673 22.4614 37.2522C22.1269 37.8354 21.6625 38.334 21.104 38.7097C20.5455 39.0853 19.9079 39.3279 19.2405 39.4186C18.573 39.5094 17.8936 39.4459 17.2546 39.2331C16.6157 39.0203 16.0344 38.6639 15.5555 38.1914L9.90531 34.1218C9.26298 33.8005 8.70944 33.3271 8.29319 32.7429C7.87695 32.1588 7.61069 31.4817 7.51775 30.7711C7.42481 30.0605 7.50802 29.338 7.76009 28.6669C8.01216 27.9958 8.4254 27.3966 8.9636 26.9218C9.26936 26.3155 9.71212 25.7883 10.257 25.3818C10.8019 24.9752 11.434 24.7004 12.1035 24.579C12.7731 24.4576 13.4617 24.4929 14.1152 24.6822C14.7687 24.8714 15.3693 25.2095 15.8694 25.6696L16.8111 26.6088L14.6138 29.7392" fill="white"/>
<path d="M26.5421 31.9301L15.8694 19.4084L18.6946 16.9041L27.1699 26.9214L30.9367 23.791L32.8201 26.2954L26.5421 31.9301Z" fill="white"/>
<path d="M37.5286 16.5913L35.6452 17.5304L33.134 10.9565L37.5286 16.9044V16.5913ZM37.8425 23.4783L36.5869 20.6609L39.412 18.7826L41.2955 21.287L44.7484 19.4087L33.7618 6.88696L29.6811 9.39131L34.3896 25.3565L37.8425 23.4783Z" fill="white"/>
<path d="M47.8873 12.8344V14.0866C47.9246 14.2941 48.0036 14.492 48.1194 14.6683C48.2353 14.8447 48.3857 14.9958 48.5616 15.1128C48.7375 15.2297 48.9352 15.31 49.143 15.3488C49.3508 15.3877 49.5643 15.3843 49.7707 15.3388C49.9786 15.3154 50.1773 15.2405 50.3488 15.121C50.5203 15.0015 50.6591 14.8412 50.7527 14.6545C50.8463 14.4679 50.8916 14.261 50.8846 14.0524C50.8775 13.8439 50.8183 13.6405 50.7124 13.4605C50.496 12.9552 50.1499 12.5156 49.7091 12.1859C49.2683 11.8562 48.7483 11.648 48.2012 11.5823L44.7483 10.3301C43.791 9.65725 43.1195 8.65275 42.8649 7.51271C42.6761 6.8931 42.6274 6.23948 42.7222 5.59884C42.817 4.95821 43.053 4.34649 43.4132 3.80768C43.7734 3.26886 44.2488 2.81635 44.8053 2.48268C45.3618 2.14901 45.9856 1.94247 46.6317 1.87793C47.2953 1.62488 48.0105 1.53604 48.7161 1.61904C49.4216 1.70204 50.0965 1.95439 50.6828 2.35448C51.2692 2.75456 51.7495 3.29045 52.0827 3.91622C52.4159 4.54199 52.5919 5.23899 52.5958 5.94749L49.1429 6.88662C48.829 5.94749 48.5151 4.69532 47.2595 5.00836C46.9832 5.07934 46.7395 5.24203 46.5683 5.46963C46.3971 5.69723 46.3088 5.97618 46.3178 6.26054C46.3795 6.65357 46.5647 7.01692 46.8468 7.29822C47.1288 7.57952 47.4932 7.76424 47.8873 7.82575L51.968 9.07793C52.5705 9.45 53.081 9.9529 53.4615 10.5491C53.8419 11.1454 54.0825 11.8195 54.1653 12.5214C54.409 13.1362 54.5101 13.798 54.4609 14.4573C54.4118 15.1166 54.2138 15.7562 53.8816 16.3283C53.5495 16.9004 53.0919 17.3902 52.543 17.761C51.9942 18.1317 51.3684 18.3739 50.7124 18.4692C50.1608 18.7159 49.5612 18.8372 48.9568 18.8246C48.3525 18.8119 47.7585 18.6654 47.2178 18.3958C46.6772 18.1262 46.2033 17.7402 45.8305 17.2657C45.4577 16.7911 45.1953 16.2399 45.0622 15.6518V13.7736L48.5151 12.8344" fill="white"/>
<path d="M60.1295 11.2685V12.2077C60.1295 12.4132 60.1701 12.6167 60.249 12.8066C60.3279 12.9965 60.4435 13.1691 60.5892 13.3144C60.735 13.4598 60.908 13.5751 61.0984 13.6537C61.2888 13.7324 61.4929 13.7729 61.699 13.7729C62.032 13.7729 62.3514 13.641 62.5869 13.4061C62.8223 13.1713 62.9546 12.8528 62.9546 12.5207C62.8615 11.9395 62.6059 11.3962 62.2173 10.9532C61.8286 10.5103 61.3226 10.1856 60.7573 10.0164L57.9322 7.82505C57.1395 6.97257 56.6921 5.85713 56.6766 4.69462C56.6297 4.06601 56.7193 3.43471 56.9394 2.84379C57.1594 2.25287 57.5047 1.71625 57.9516 1.27053C58.3986 0.824803 58.9367 0.480474 59.5292 0.261033C60.1218 0.0415924 60.7548 -0.0477968 61.3851 -0.00103515C62.0691 -0.108015 62.7688 -0.0522972 63.4272 0.161577C64.0855 0.375451 64.6839 0.741428 65.1735 1.22968C65.663 1.71794 66.03 2.31465 66.2445 2.97118C66.4589 3.62772 66.5148 4.3255 66.4075 5.00766H62.9546C62.9546 4.06853 62.9546 2.81636 61.699 2.81636C61.366 2.81636 61.0466 2.94828 60.8112 3.18311C60.5757 3.41794 60.4434 3.73643 60.4434 4.06853C60.4203 4.47502 60.5303 4.87799 60.7567 5.21676C60.9832 5.55552 61.3139 5.81173 61.699 5.94679L65.1519 8.13809C65.6794 8.60673 66.0943 9.18771 66.366 9.83798C66.6377 10.4883 66.7592 11.1912 66.7215 11.8946C66.8183 12.5476 66.7659 13.214 66.5682 13.844C66.3706 14.474 66.0328 15.0514 65.5801 15.533C65.1274 16.0146 64.5714 16.3879 63.9537 16.6252C63.3361 16.8625 62.6726 16.9576 62.0129 16.9033C61.3844 17.1069 60.7158 17.1552 60.0644 17.0441C59.4131 16.933 58.7985 16.6658 58.2736 16.2654C57.7487 15.8651 57.3291 15.3437 57.0509 14.7459C56.7727 14.1482 56.6443 13.492 56.6766 12.8337V11.2685H60.1295Z" fill="white"/>
<path d="M68.6048 16.9044L72.0577 0.939209L75.5106 1.87834L72.3716 17.5305L68.6048 16.9044Z" fill="white"/>
<path d="M75.5106 18.1563L80.8469 2.81714L89.3223 5.94757L88.3806 9.07801L83.3582 7.19975L82.4165 10.0171L86.8111 11.5824L85.8694 14.7128L81.4747 13.1476L78.9635 19.4084L75.5106 18.1563Z" fill="white"/>
<path d="M85.2416 21.9133L93.403 8.1394L96.8559 10.0177L88.3806 23.7916L85.2416 21.9133Z" fill="white"/>
<path d="M90.8918 25.3564L101.565 13.1477L108.156 19.0955L105.959 21.2868L102.192 18.1564L100.309 20.3477L104.076 23.4781L101.878 25.9825L98.1116 22.8521L95.9143 25.3564L99.6811 28.7999L97.7977 31.3042L90.8918 25.3564Z" fill="white"/>
<path d="M111.923 28.1739C112.865 29.7391 113.179 30.3652 111.923 31.3044L107.842 34.4348C106.273 35.687 105.331 36.3131 103.762 34.1217L111.923 27.8609V28.1739ZM102.192 36.9391C102.803 37.893 103.674 38.6532 104.703 39.1304C105.358 39.3297 106.054 39.3476 106.718 39.1822C107.381 39.0167 107.987 38.6742 108.47 38.1913L114.12 33.8087C114.758 33.4785 115.297 32.9862 115.683 32.3815C116.069 31.7769 116.288 31.0813 116.318 30.3652C116.005 28.9793 115.358 27.6902 114.434 26.6087L111.923 23.4783L99.0532 33.1826L102.192 37.2522" fill="white"/>
</g>
<defs>
<clipPath id="clip0_106_1051">
<rect width="140" height="108" fill="white" transform="translate(0.174316)"/>
</clipPath>
</defs>
</svg>
