<svg width="114" height="82" viewBox="0 0 114 82" fill="none" xmlns="http://www.w3.org/2000/svg">
<path d="M113.185 81.1593V68.9702C111.867 69.1586 110.522 69.2527 109.149 69.2527C95.6283 69.2527 84.3138 59.7544 81.5423 47.0541H105.113V34.9458H81.5423C84.3138 22.2455 95.6149 12.7472 109.149 12.7472C110.522 12.7472 111.867 12.8414 113.185 13.0298V0.840721C111.853 0.706184 110.508 0.638916 109.149 0.638916C86.8565 0.638916 68.7882 18.7072 68.7882 41C68.7882 63.2928 86.8565 81.3611 109.149 81.3611C110.508 81.3611 111.853 81.2938 113.185 81.1593Z" fill="white"/>
<path d="M0.174316 41C0.174316 63.2928 18.2426 81.3611 40.5354 81.3611C41.9884 81.3611 43.4279 81.2803 44.8406 81.1323V68.9298C43.4414 69.1451 42.0018 69.2527 40.5354 69.2527C24.9291 69.2527 12.2826 56.6063 12.2826 41C12.2826 25.3937 24.9291 12.7472 40.5354 12.7472C42.0018 12.7472 43.4414 12.8549 44.8406 13.0701V0.867628C43.4279 0.719638 41.9884 0.638916 40.5354 0.638916C18.2426 0.638916 0.174316 18.7072 0.174316 41Z" fill="white"/>
</svg>
