<svg width="155" height="58" viewBox="0 0 155 58" fill="none" xmlns="http://www.w3.org/2000/svg">
<path fill-rule="evenodd" clip-rule="evenodd" d="M8.07742 57.8581C3.92206 57.8506 0.507407 54.436 0.5 50.2806V7.71953C0.507407 3.56416 3.92206 0.149497 8.07742 0.14209H146.597C150.752 0.149497 154.167 3.56416 154.174 7.71953V50.2732C154.167 54.4286 150.752 57.8432 146.597 57.8506H8.07742V57.8581Z" fill="#015A75"/>
<path fill-rule="evenodd" clip-rule="evenodd" d="M8.07741 1.32739C4.57387 1.3348 1.68512 4.21615 1.68512 7.7197V50.2734C1.69253 53.7769 4.57387 56.6657 8.07741 56.6657H52.5938V1.32739H8.07741ZM112.88 39.8442L113.828 38.5109C114.509 39.222 115.458 39.622 116.443 39.622C117.406 39.622 117.872 39.1776 117.872 38.7109C117.872 38.111 117.109 37.9332 116.206 37.711C114.858 37.4073 113.139 37.0369 113.139 35.1629C113.139 33.7926 114.324 32.6593 116.258 32.6593C117.569 32.6593 118.65 33.0519 119.465 33.8074L118.487 35.0889C117.828 34.5037 116.976 34.1852 116.095 34.1926C115.346 34.1926 114.924 34.5259 114.924 35.0148C114.924 35.5481 115.68 35.7185 116.561 35.9259C117.909 36.2444 119.643 36.6518 119.643 38.5183C119.643 40.022 118.569 41.1553 116.354 41.1553C114.776 41.1404 113.635 40.622 112.88 39.8442ZM105.384 39.8442L106.332 38.5109C107.014 39.222 107.962 39.622 108.947 39.622C109.91 39.622 110.376 39.1776 110.376 38.7109C110.376 38.111 109.613 37.9332 108.717 37.711C107.369 37.4073 105.651 37.0369 105.651 35.1629C105.651 33.7926 106.836 32.6593 108.769 32.6593C110.073 32.6593 111.161 33.0519 111.976 33.8074L111.006 35.0889C110.347 34.5037 109.495 34.1852 108.613 34.1926C107.865 34.1926 107.443 34.5259 107.443 35.0148C107.443 35.5481 108.199 35.7185 109.08 35.9259C110.428 36.2444 112.161 36.6518 112.161 38.5183C112.161 40.022 111.087 41.1553 108.873 41.1553C107.288 41.1404 106.154 40.622 105.384 39.8442ZM78.089 39.8442L79.0371 38.5109C79.7185 39.222 80.6666 39.622 81.6517 39.622C82.6147 39.622 83.0813 39.1776 83.0813 38.7109C83.0813 38.111 82.3184 37.9332 81.4147 37.711C80.0666 37.4073 78.3482 37.0369 78.3482 35.1629C78.3482 33.7926 79.5333 32.6593 81.4666 32.6593C82.7776 32.6593 83.8591 33.0519 84.6738 33.8074L83.6961 35.0889C83.0369 34.5037 82.1851 34.1852 81.3036 34.1926C80.5555 34.1926 80.1333 34.5259 80.1333 35.0148C80.1333 35.5481 80.8814 35.7185 81.7703 35.9259C83.1183 36.2444 84.8516 36.6518 84.8516 38.5183C84.8516 40.022 83.7776 41.1553 81.5629 41.1553C79.9926 41.1404 78.8593 40.622 78.089 39.8442ZM69.5116 37.7258V32.7779H71.3041V37.6591C71.3041 38.8072 71.9781 39.5924 73.2373 39.5924C74.4965 39.5924 75.1632 38.7998 75.1632 37.6591V32.7779H76.9557V37.711C76.9557 39.7553 75.7483 41.1479 73.2447 41.1479C70.7486 41.1553 69.5116 39.7479 69.5116 37.7258ZM95.2659 41.0071L91.3476 35.6444V41.0071H89.5995V32.7779H91.392L95.2067 37.9332V32.7779H96.9547V40.9997H95.2659V41.0071ZM86.133 41.0071V32.7779H87.8811V40.9997H86.133V41.0071ZM98.6658 41.0071V32.7779H104.495V34.3185H100.421V36.0592H104.406V37.5999H100.421V39.459H104.488V40.9997L98.6658 41.0071ZM61.2601 41.0071V32.7779H65.5858C67.1561 32.7779 67.9561 33.7778 67.9561 34.8741C67.9561 35.9111 67.3117 36.5999 66.5413 36.7629C67.4154 36.8962 68.1116 37.748 68.1116 38.7776C68.1116 40.0072 67.2895 40.9997 65.7192 40.9997L61.2601 41.0071ZM66.3265 38.5406C66.3265 38.0221 65.9562 37.5776 65.2673 37.5776H63.0156V39.4887H65.2673C65.9266 39.4887 66.3265 39.1257 66.3265 38.5406ZM66.171 35.1777C66.171 34.6815 65.7636 34.2815 65.2747 34.2815C65.2525 34.2815 65.2303 34.2815 65.2081 34.2815H63.0156V36.074H65.2081C65.8006 36.074 66.171 35.7037 66.171 35.1852V35.1777ZM69.3857 22.7709C69.3857 20.2451 71.2967 18.5118 73.7632 18.5118C75.2002 18.4748 76.5335 19.2599 77.2001 20.5265L75.6965 21.2673C75.3261 20.5488 74.5854 20.0821 73.7706 20.0673C72.2818 20.0673 71.193 21.2154 71.193 22.7561C71.193 24.2967 72.2744 25.4448 73.7706 25.4448C74.5854 25.4374 75.3335 24.9782 75.7039 24.2523L77.2001 25.0004C76.6075 26.0226 75.5705 27.0151 73.7632 27.0151C71.3041 27.0226 69.3857 25.3041 69.3857 22.7709ZM77.9408 22.7709C77.9408 20.2451 79.8518 18.5118 82.3184 18.5118C83.7554 18.4748 85.0886 19.2599 85.7553 20.5265L84.2516 21.2673C83.8739 20.5414 83.1332 20.0821 82.3184 20.0673C80.8296 20.0673 79.7407 21.2154 79.7407 22.7561C79.7407 24.2967 80.8222 25.4448 82.3184 25.4448C83.1332 25.4374 83.8813 24.9782 84.2516 24.2523L85.7553 24.9782C85.1627 26.0004 84.1257 26.9929 82.3184 26.9929C79.8592 27.0226 77.9408 25.3041 77.9408 22.7709ZM91.5402 26.8818L89.9254 23.9708H88.644V26.8818H86.896V18.66H90.7402C92.4512 18.66 93.503 19.7784 93.503 21.3117C93.503 22.7635 92.592 23.556 91.7105 23.756L93.5623 26.8966L91.5402 26.8818ZM66.9339 26.8818L66.4302 25.4893H62.9045L62.386 26.8818H60.3861L63.5711 18.66H65.7636L68.9338 26.8818H66.9339ZM129.124 26.8818V18.66H132.368C134.946 18.66 136.731 20.2969 136.731 22.7783C136.731 25.2597 134.938 26.8818 132.368 26.8818H129.124ZM121.85 26.8818V18.66H127.679V20.2006H123.598V21.9413H127.576V23.482H123.598V25.3411H127.664V26.8818H121.85ZM111.124 26.8818V18.66H112.873V26.8818H111.124ZM102.184 26.8818V18.66H105.428C108.006 18.66 109.791 20.2969 109.791 22.7783C109.791 25.2597 107.999 26.8818 105.428 26.8818H102.184ZM94.9104 26.8818V18.66H100.74V20.2006H96.6585V21.9413H100.643V23.482H96.6585V25.3411H100.725V26.8818H94.9104ZM116.487 26.8818V20.2006H114.08V18.66H120.643V20.2006H118.25V26.8818H116.487ZM134.953 22.7783C134.953 21.3265 134.057 20.2006 132.375 20.2006H130.886V25.3411H132.375C133.99 25.3411 134.938 24.1708 134.938 22.7783H134.953ZM108.013 22.7783C108.013 21.3265 107.117 20.2006 105.436 20.2006H103.947V25.3411H105.436C107.051 25.3411 107.999 24.1708 107.999 22.7783H108.013ZM64.6674 20.408L63.3859 23.9486H65.9488L64.6674 20.408ZM91.7105 21.3043C91.7105 20.6154 91.1846 20.1932 90.481 20.1932H88.644V22.4154H90.481C91.1846 22.4154 91.7105 22.0006 91.7105 21.3043Z" fill="white"/>
<path fill-rule="evenodd" clip-rule="evenodd" d="M18.914 47.6881C20.0843 48.2066 20.6547 48.5474 20.8769 49.9992C21.2546 52.5324 18.9214 53.4953 16.7215 53.4953H11.5662V42.4439H16.7659C18.6325 42.4439 20.3362 43.2957 20.3362 45.3771C20.3362 46.4141 19.7954 47.1697 18.914 47.6881ZM29.2394 47.6881C30.4098 48.2066 30.9801 48.5474 31.2023 49.9992C31.5801 52.5324 29.2468 53.4953 27.047 53.4953H21.8916V42.4439H27.0914C28.958 42.4439 30.6616 43.2957 30.6616 45.3771C30.6616 46.4141 30.1209 47.1697 29.2394 47.6881ZM41.5278 50.0066C41.3055 48.5548 40.7278 48.2141 39.5649 47.6956C40.4463 47.1771 40.9944 46.4215 40.9944 45.3771C40.9944 43.2957 39.2908 42.4439 37.4242 42.4439H32.2245V53.5027H37.3798C39.5723 53.5027 41.9129 52.5398 41.5278 50.0066ZM42.9647 50.851V50.8288C42.9647 49.4288 44.1128 48.2807 45.5128 48.2807C46.9127 48.2807 48.0608 49.4288 48.0608 50.8213V50.8436C48.0608 52.2435 46.9127 53.3916 45.5128 53.3916C44.1202 53.399 42.9721 52.2509 42.9647 50.851ZM47.8312 50.8436V50.8213C47.8238 49.5547 46.7794 48.5103 45.5128 48.5103C44.2387 48.5103 43.1943 49.5547 43.1943 50.8288V50.851C43.2018 52.1176 44.2462 53.162 45.5128 53.162C46.7868 53.162 47.8312 52.1176 47.8312 50.8436ZM44.5128 49.4584H45.6831C45.9646 49.4436 46.2461 49.5473 46.4609 49.7325C46.6016 49.8658 46.6757 50.051 46.6757 50.2362V50.251C46.6757 50.6732 46.3942 50.925 46.0016 51.0213L46.809 52.0731H46.3275L45.572 51.088H44.9054V52.0731H44.5202L44.5128 49.4584ZM16.9363 51.4065H13.9142V48.8881H16.9363C19.151 48.8881 19.0177 51.4065 16.9363 51.4065ZM27.2618 51.4065H24.2471V48.8881H27.2618C29.4765 48.8881 29.3431 51.4065 27.2618 51.4065ZM34.5725 48.8881V51.4065H37.5872C39.6686 51.4065 39.8019 48.8881 37.5872 48.8881H34.5725ZM45.6461 50.7399C46.009 50.7399 46.2683 50.5695 46.2683 50.2732V50.2584C46.2683 49.9843 46.0461 49.8066 45.6683 49.8066H44.898V50.7399H45.6461ZM13.9142 44.555H16.6252C18.314 44.555 18.3733 46.9104 16.7289 46.9104H13.9142V44.555ZM34.5799 44.555H37.2687C38.9575 44.555 39.0168 46.9104 37.3724 46.9104H34.5651L34.5799 44.555ZM24.2545 44.555H26.9581C28.6469 44.555 28.7061 46.9104 27.0618 46.9104H24.2471L24.2545 44.555ZM16.5586 37.496H21.5879L22.4842 40.5477H30.706L31.6023 37.496H36.6317L35.9725 35.2517H17.2178L16.5586 37.496ZM22.6472 19.4153L20.2102 22.7781C18.9881 24.4595 19.3658 27.4446 21.0324 28.6445L25.5507 31.9037C26.3285 32.4666 26.3877 33.0221 26.0174 33.6073L26.6766 34.0962L28.9654 30.9259C30.3801 28.963 30.2542 26.3039 28.158 24.7706L23.5953 21.4449C23.0545 21.0449 22.9953 20.4893 23.2916 19.8746L22.6472 19.4153ZM26.5581 4.57153L22.7657 9.82315C20.988 12.2823 21.6324 16.4821 24.0619 18.2746L30.2987 22.8522C31.5653 23.7781 31.7282 26.1484 30.8097 27.3557L31.3356 27.7557L35.6391 21.7041C37.5724 18.9857 37.4613 14.9637 34.4244 12.7638L27.7506 7.91213C26.8173 7.23808 26.3507 6.08258 27.1284 4.97892L26.5581 4.57153Z" fill="#015A75"/>
</svg>
