<svg width="149" height="38" viewBox="0 0 149 38" fill="none" xmlns="http://www.w3.org/2000/svg">
<path d="M130.303 27.4804C130.506 27.9148 130.608 28.3836 130.608 28.8782C130.608 31.4773 129.144 32.5953 128.432 33.1819C126.649 34.6386 124.106 34.5343 124.079 34.5343H122.696C121.829 34.5343 120.859 35.2448 120.859 36.2597C120.859 37.3433 121.595 37.9974 122.827 37.9974H124.084C124.155 37.9974 125.922 38.0686 127.822 37.4697C129.742 36.8647 132.391 35.4436 134.22 32.1081C134.661 31.3166 138.433 22.9214 141.183 16.799L143.284 12.1491C143.407 11.8632 143.418 11.581 143.341 11.3232C143.251 11.0349 143.031 10.7943 142.714 10.6274C142.171 10.3501 141.418 10.3329 140.672 10.5661C139.906 10.8078 139.264 11.3073 139.014 11.8632C138.99 11.9357 135.875 18.5796 135.648 19.0398C135.039 20.2388 134.306 20.9358 133.633 20.9358C132.842 20.9358 132.349 20.8401 131.214 18.933C131.13 18.7833 127.721 12.8486 127.177 11.9197C126.866 11.3343 126.206 10.8361 125.4 10.5833C124.593 10.3329 123.76 10.344 123.176 10.6446C122.831 10.825 122.587 11.0901 122.49 11.4018C122.403 11.6804 122.425 11.9908 122.557 12.3038C122.583 12.3639 129.868 26.5821 130.303 27.4804ZM110.895 18.8766C110.933 17.6555 111.933 16.7106 113.181 16.7106H113.179H113.222H113.174H116.09C117.036 16.7106 117.788 16.4382 118.323 15.8994C119.171 15.0649 119.202 13.8402 119.202 13.6095C119.203 13.2929 119.159 12.2596 118.394 11.5036C117.866 10.9809 117.114 10.7072 116.159 10.7072H113.201C111.192 10.7072 111.192 10.2507 111.192 9.05173C111.192 9.02473 111.253 6.58631 113.23 5.89663C113.857 5.66837 114.561 5.56161 115.306 5.55793H118.872C120.111 5.55793 121.222 4.73939 121.574 3.56989C121.654 3.31095 121.695 3.04588 121.695 2.77958C121.695 1.24559 120.422 0 118.872 0C118.818 0 115.469 0.00981749 115.469 0.00981749C115.002 0.00981749 114.496 0.03927 113.973 0.0920881C112.379 0.26144 110.954 0.622233 109.716 1.16219C104.504 3.44231 104.26 8.09825 104.26 8.14857L104.255 8.22092C103.995 9.83222 103.569 10.7072 102.02 10.7072C101.25 10.7072 100.629 10.9453 100.177 11.4349C99.3806 12.2731 99.408 13.5727 99.408 13.5899V13.5727C99.408 16.2173 101.941 16.7106 101.981 16.7155C103.176 16.8124 104.08 17.7697 104.08 18.9318C104.08 18.9894 104.064 24.9401 104.064 28.078C104.064 29.1825 104.371 30.0366 104.954 30.6208C105.724 31.3804 106.716 31.3878 106.752 31.3878H108.111C108.192 31.3878 108.939 31.3742 109.639 30.892C110.211 30.5115 110.896 29.7102 110.896 28.1087L110.895 18.8766ZM62.9937 13.0204C62.9937 13.0204 62.8594 10.42 65.6763 10.42C67.2874 10.42 68.3031 11.862 70.1976 11.862C72.6192 11.862 73.2607 10.42 76.5438 10.42C80.2943 10.42 80.5069 11.862 82.8229 11.862C85.2706 11.862 85.7094 10.42 90.0243 10.42C92.3129 10.42 94.8365 11.7356 94.8365 14.5704C94.8365 18.4348 94.8464 28.656 94.8464 28.7223C94.8464 30.1765 93.6443 31.3743 92.1563 31.3743C90.6757 31.3743 89.4724 30.1765 89.4724 28.7223V17.1254C89.4724 15.8344 89.4898 13.245 87.1937 13.191C87.1937 13.191 81.5971 12.4302 81.5971 22.1004C81.5971 22.255 81.6061 28.6683 81.6061 28.7223C81.6061 30.1765 80.4002 31.3743 78.9184 31.3743C77.464 31.3743 76.273 30.2268 76.2333 28.8021V17.1217C76.2333 16.2774 76.3837 13.191 73.9161 13.191C69.1524 13.191 68.3642 17.9979 68.3642 21.9433V28.7223C68.3642 30.1765 67.1596 31.3743 65.6766 31.3743C64.2209 31.3743 63.0324 30.2268 62.9939 28.8021L62.9937 13.0204ZM41.3062 4.49641C32.1692 4.49641 24.7763 11.7994 24.7763 20.8192C24.7763 29.8304 32.1692 37.1408 41.3062 37.1408C50.442 37.1408 57.8436 29.8304 57.8436 20.8192C57.8436 11.7994 50.442 4.49641 41.3062 4.49641ZM41.3062 26.6484C38.0604 26.6484 35.3976 24.0332 35.3976 20.8192C35.3976 17.5979 38.0604 14.9852 41.3062 14.9852C44.5619 14.9852 47.2123 17.5979 47.2123 20.8192C47.2123 24.0332 44.5619 26.6484 41.3062 26.6484ZM5.72775 21.6132C5.76504 21.6243 6.99574 22.1188 8.30227 22.6465L12.3002 24.2492C13.2475 24.6137 13.736 25.6003 13.4662 26.6017C13.1405 27.8559 11.6214 29.0426 8.36194 28.6106C7.06536 28.4376 4.05076 27.8007 4.0172 27.7921L4.04087 27.8009C3.96876 27.7777 2.15379 27.1297 1.03 27.7236C0.630955 27.9396 0.371141 28.2721 0.2518 28.7384C-0.172108 30.4099 1.57076 30.9903 1.58319 30.9989C2.206 31.2174 2.89594 31.3757 3.45162 31.4873L3.91531 31.6088C3.95131 31.6128 7.90825 32.539 11.0434 32.4973C13.107 32.469 18.1144 32.0052 20.0735 28.4574C20.3632 27.9396 20.7647 26.1135 20.5633 24.9575C20.3284 23.6149 19.9206 22.2798 17.5649 20.774C16.9682 20.3985 15.1122 19.7873 13.4663 19.2486C12.6023 18.9737 11.7719 18.7001 11.3418 18.527C8.45523 17.3796 7.94181 16.3353 7.89333 15.8125C7.85852 15.5106 7.95678 14.8197 8.50868 14.2012C9.20235 13.4661 10.3547 13.0808 11.9348 13.0808C14.3141 13.0808 15.234 13.3569 16.2161 13.6404C16.3988 13.7042 16.5866 13.7631 16.7892 13.8134C17.5326 14.0048 18.1206 13.9778 18.5383 13.7262C19.0343 13.417 19.1375 12.8991 19.1785 12.7175C19.2369 12.396 19.3127 11.316 17.5811 10.6276C17.4418 10.5723 13.9039 9.21509 8.3334 9.97717C7.55147 10.0803 6.01869 10.3785 4.58163 11.1737C2.47452 12.3137 1.37932 14.0993 1.41786 16.3107C1.44521 17.9122 2.20103 19.3247 3.6095 20.4254C4.65995 21.2464 5.69299 21.6011 5.73774 21.6134" fill="#FFB514"/>
<path d="M145.019 31.2429C143.159 31.2429 141.904 29.92 141.904 28.1467C141.904 26.3685 143.174 25.026 145.034 25.026C146.833 25.026 148.185 26.3685 148.185 28.1467C148.185 29.92 146.814 31.2429 145.019 31.2429ZM145.019 25.75C143.685 25.75 142.724 26.7907 142.724 28.1467C142.724 29.488 143.685 30.5299 145.019 30.5299C146.349 30.5299 147.314 29.488 147.314 28.1467C147.314 26.7907 146.349 25.75 145.019 25.75ZM145.535 29.6476C145.104 28.8965 144.858 28.429 144.747 28.429H144.669V29.6476H143.98V26.5514H145.023C145.718 26.5514 146.094 26.9109 146.094 27.3908C146.094 27.8988 145.661 28.1516 145.383 28.2424V28.2473C145.535 28.2473 145.965 28.9689 146.348 29.6476H145.535ZM144.783 27.0803H144.669V27.8988H144.77C145.097 27.8988 145.356 27.7773 145.356 27.4534C145.356 27.1588 145.152 27.0803 144.783 27.0803Z" fill="#FFB514"/>
</svg>
